<?xml version="1.0" encoding="UTF-8"?>
<svg version="1.1" xmlns="http://www.w3.org/2000/svg" width="500" height="500">
<path d="M0 0 C0.65891235 0.00215515 1.31782471 0.0043103 1.9967041 0.00653076 C19.26800225 0.096992 34.21310244 3.20848035 50.3125 9.3125 C50.96508789 9.5595166 51.61767578 9.8065332 52.29003906 10.06103516 C65.32174565 15.12075722 77.26352548 22.29630183 89.3125 29.3125 C90.49866006 29.99953269 91.6850264 30.68620933 92.87158203 31.37255859 C107.07628029 39.5926597 121.14754885 47.96952348 134.96875 56.82373047 C139.39066662 59.63256875 143.85383505 62.37501912 148.3125 65.125 C153.58740915 68.37943901 158.85475529 71.6386375 164.0625 75 C171.35024917 79.65542337 178.80747419 84.01864647 186.3125 88.3125 C187.31361816 88.88919434 187.31361816 88.88919434 188.33496094 89.47753906 C218.61294722 106.75565617 255.37248606 120.51692938 290.3125 111.3125 C302.43860943 107.48320228 311.95151786 101.97904494 321.18359375 93.265625 C323.3125 91.3125 323.3125 91.3125 326.3125 89.3125 C321.3189771 103.15376979 308.67826235 112.45082996 296.3125 119.3125 C295.43851562 119.79847656 294.56453125 120.28445313 293.6640625 120.78515625 C271.15709442 132.1078925 243.02774903 130.71781084 219.3125 124.3125 C218.49378418 124.09819336 217.67506836 123.88388672 216.83154297 123.66308594 C198.40291739 118.76257664 181.13656365 111.21477216 164.3125 102.3125 C163.64524902 101.96026367 162.97799805 101.60802734 162.29052734 101.24511719 C138.44237525 88.54946665 115.98507553 73.58126552 93.59765625 58.51220703 C52.19915479 30.67166421 11.06424762 4.81400763 -41.01171875 14.31640625 C-47.201432 15.56317096 -53.2295837 17.32525074 -59.24609375 19.2265625 C-61.72370965 20.00837546 -64.15881659 20.73045011 -66.6875 21.3125 C-62.64665036 16.7128956 -58.40682642 14.34748044 -52.875 11.8125 C-52.03767334 11.42376709 -51.20034668 11.03503418 -50.33764648 10.63452148 C-33.95833789 3.20826356 -18.01214501 -0.08039085 0 0 Z " fill="#4892D1" transform="translate(122.6875,185.6875)"/>
<path d="M0 0 C36.44327876 -1.33966225 69.39798427 15.34207299 99.4765625 34.1953125 C101.44758446 35.41980574 103.4189522 36.64374252 105.390625 37.8671875 C111.43167542 41.62358046 117.45586647 45.40640847 123.4765625 49.1953125 C124.34764648 49.74251953 125.21873047 50.28972656 126.11621094 50.85351562 C139.3291567 59.15468124 152.51089164 67.5113283 165.4765625 76.1953125 C163.4765625 77.1953125 163.4765625 77.1953125 160.80053711 76.47363281 C159.67139893 76.07756836 158.54226074 75.68150391 157.37890625 75.2734375 C156.76187836 75.05803314 156.14485046 74.84262878 155.50912476 74.62069702 C153.47382442 73.90533786 151.44366659 73.17666673 149.4140625 72.4453125 C148.71606537 72.1957782 148.01806824 71.9462439 147.29891968 71.68914795 C133.72814607 66.82387196 120.56437061 61.24150557 107.4765625 55.1953125 C105.68814642 54.37662962 103.89972608 53.55795599 102.1111145 52.73970032 C91.63629571 47.94260295 81.17376784 43.12783864 70.9140625 37.8828125 C33.62826634 18.92977379 -2.15306394 12.70017822 -43.5234375 13.1953125 C-34.66263343 6.32147661 -23.41459682 3.13860857 -12.5234375 1.1953125 C-11.79253906 1.06382812 -11.06164062 0.93234375 -10.30859375 0.796875 C-6.88407625 0.3104752 -3.45202814 0.19135411 0 0 Z " fill="#4996D4" transform="translate(91.5234375,218.8046875)"/>
<path d="M0 0 C0.99 0.495 0.99 0.495 2 1 C5.32069619 15.47482957 2.7755924 31.19926972 -4.19921875 44.1796875 C-7.26560374 48.98213861 -10.94899472 53.01329639 -15 57 C-15.57621094 57.57492187 -16.15242188 58.14984375 -16.74609375 58.7421875 C-32.83944073 73.63914658 -52.8476182 74.72222905 -73.55029297 74.17919922 C-80.98128724 73.7931872 -87.93187972 72.2641419 -95 70 C-95.67385742 69.78569336 -96.34771484 69.57138672 -97.04199219 69.35058594 C-113.39551549 63.98275483 -127.9548809 55.84772719 -142 46 C-138.43211859 44.8107062 -137.21199134 45.28115837 -133.64453125 46.29296875 C-132.55930176 46.59187012 -131.47407227 46.89077148 -130.35595703 47.19873047 C-129.18661621 47.52502441 -128.01727539 47.85131836 -126.8125 48.1875 C-95.30355003 56.63107483 -58.42674146 63.74277407 -28.2956543 47.34545898 C-14.70970276 39.42407893 -7.7584489 27.55333168 -3 13 C-1.86624375 8.69082284 -0.87928662 4.36783842 0 0 Z " fill="#468CCC" transform="translate(451,204)"/>
<path d="M0 0 C0.65891235 0.00215515 1.31782471 0.0043103 1.9967041 0.00653076 C32.4489211 0.1660292 58.28932744 11.34315189 84.3125 26.3125 C84.3125 26.9725 84.3125 27.6325 84.3125 28.3125 C81.3425 28.8075 81.3425 28.8075 78.3125 29.3125 C77.3225 27.8275 77.3225 27.8275 76.3125 26.3125 C75.3225 25.9825 74.3325 25.6525 73.3125 25.3125 C71.21971928 27.40528072 70.41927961 30.61773225 69.3125 33.3125 C69.3125 35.15296388 70.48478177 36.70879594 71.3125 38.3125 C72.9625 38.3125 74.6125 38.3125 76.3125 38.3125 C76.3125 39.9625 76.3125 41.6125 76.3125 43.3125 C75.3225 43.8075 75.3225 43.8075 74.3125 44.3125 C68.381805 42.20092865 63.26262127 38.9372244 57.9375 35.625 C26.21235854 16.29308537 -8.83571449 7.03714588 -45.6875 15.3125 C-50.25122731 16.47529758 -54.75606857 17.80764396 -59.24609375 19.2265625 C-61.72370965 20.00837546 -64.15881659 20.73045011 -66.6875 21.3125 C-62.64665036 16.7128956 -58.40682642 14.34748044 -52.875 11.8125 C-52.03767334 11.42376709 -51.20034668 11.03503418 -50.33764648 10.63452148 C-33.95833789 3.20826356 -18.01214501 -0.08039085 0 0 Z " fill="#4FA8E0" transform="translate(122.6875,185.6875)"/>
<path d="M0 0 C0.33 0.66 0.66 1.32 1 2 C-7.42212813 14.27748924 -15.88672766 22.7869093 -29 30 C-29.87269531 30.4846875 -30.74539063 30.969375 -31.64453125 31.46875 C-54.11943584 42.79251145 -82.31504231 41.43712786 -106 35 C-106.83998535 34.77505859 -107.6799707 34.55011719 -108.54541016 34.31835938 C-119.67495862 31.28245775 -130.39261812 27.53224498 -141 23 C-138.54098693 21.65824552 -137.29084377 20.99290625 -134.4375 21.0625 C-131.97237543 21.22701813 -131.97237543 21.22701813 -130.25 19.75 C-128.86893224 18.07631982 -128.86893224 18.07631982 -128.625 16 C-128 14 -128 14 -125.625 12.25 C-123 11 -123 11 -120 11 C-120.66 10.34 -121.32 9.68 -122 9 C-116.92917717 9.69942384 -112.49262109 11.78606859 -107.8125 13.75 C-80.88403757 24.73488429 -52.81184768 29.83224959 -24.9921875 18.37109375 C-15.17241513 13.87143304 -7.60883568 7.60883568 0 0 Z " fill="#407DC3" transform="translate(448,275)"/>
<path d="M0 0 C12.44176438 -0.44559797 24.31177113 1.76977276 36.4765625 4.1953125 C36.4765625 4.8553125 36.4765625 5.5153125 36.4765625 6.1953125 C37.4665625 6.6903125 37.4665625 6.6903125 38.4765625 7.1953125 C38.4765625 8.1853125 38.4765625 9.1753125 38.4765625 10.1953125 C39.4665625 11.1853125 39.4665625 11.1853125 40.4765625 12.1953125 C39.8578125 12.4428125 39.2390625 12.6903125 38.6015625 12.9453125 C36.12587563 14.40159889 35.52531248 15.57343756 34.4765625 18.1953125 C32.4965625 17.5353125 30.5165625 16.8753125 28.4765625 16.1953125 C28.4765625 15.5353125 28.4765625 14.8753125 28.4765625 14.1953125 C27.8165625 14.1953125 27.1565625 14.1953125 26.4765625 14.1953125 C26.4765625 14.8553125 26.4765625 15.5153125 26.4765625 16.1953125 C28.1265625 16.8553125 29.7765625 17.5153125 31.4765625 18.1953125 C31.1465625 18.8553125 30.8165625 19.5153125 30.4765625 20.1953125 C26.13125021 19.648626 21.98613068 18.87904709 17.73608398 17.78613281 C-2.53828754 12.61661002 -22.7469845 12.94665306 -43.5234375 13.1953125 C-34.66263343 6.32147661 -23.41459682 3.13860857 -12.5234375 1.1953125 C-11.79253906 1.06382812 -11.06164062 0.93234375 -10.30859375 0.796875 C-6.88407625 0.3104752 -3.45202814 0.19135411 0 0 Z " fill="#4C9BD5" transform="translate(91.5234375,218.8046875)"/>
<path d="M0 0 C6.13597076 1.56188347 10.95305059 4.95571888 16.1875 8.375 C18.16381585 9.65012194 20.14038275 10.92485486 22.1171875 12.19921875 C23.10557617 12.83907715 24.09396484 13.47893555 25.11230469 14.13818359 C29.32504077 16.8543085 33.56824299 19.52102055 37.8125 22.1875 C48.62203644 28.99939321 59.38387523 35.88966527 70 43 C68 44 68 44 65.32397461 43.27832031 C64.19483643 42.88225586 63.06569824 42.48619141 61.90234375 42.078125 C61.28531586 41.86272064 60.66828796 41.64731628 60.03256226 41.42538452 C57.99726192 40.71002536 55.96710409 39.98135423 53.9375 39.25 C53.23950287 39.0004657 52.54150574 38.7509314 51.82235718 38.49383545 C39.39091376 34.03702223 27.2720802 29.0387614 15.27587891 23.50927734 C12.27196711 22.12530189 9.26198643 20.75583579 6.2495575 19.39056396 C3.63400562 18.2033614 1.02173111 17.00909382 -1.58950806 15.81243896 C-2.85587284 15.23248787 -4.12293608 14.65405931 -5.39071655 14.07720947 C-7.14887415 13.27542307 -8.9026765 12.46410699 -10.65625 11.65234375 C-11.66494141 11.18820068 -12.67363281 10.72405762 -13.71289062 10.24584961 C-16 9 -16 9 -17 7 C-9.25 6.875 -9.25 6.875 -7 8 C-6.67 7.34 -6.34 6.68 -6 6 C-6 6.66 -6 7.32 -6 8 C-5.01 8 -4.02 8 -3 8 C-3 7.34 -3 6.68 -3 6 C-3.66 5.67 -4.32 5.34 -5 5 C-3.02 4.34 -1.04 3.68 1 3 C0.67 2.01 0.34 1.02 0 0 Z " fill="#468DCE" transform="translate(187,252)"/>
<path d="M0 0 C0.66 0.33 1.32 0.66 2 1 C5.89211195 17.96561618 1.57617642 34.57966229 -7.2890625 49.11328125 C-8.5 50.8125 -8.5 50.8125 -11 53 C-14.3125 52.875 -14.3125 52.875 -17 52 C-17.33 52.99 -17.66 53.98 -18 55 C-21 54 -21 54 -22.1875 51.9375 C-22.455625 51.298125 -22.72375 50.65875 -23 50 C-23.99 50.495 -23.99 50.495 -25 51 C-25.99 50.34 -26.98 49.68 -28 49 C-27.195625 48.7525 -26.39125 48.505 -25.5625 48.25 C-24.716875 47.8375 -23.87125 47.425 -23 47 C-22.86980469 46.401875 -22.73960937 45.80375 -22.60546875 45.1875 C-21.76186704 42.13964865 -20.06045396 40.87684173 -17.75 38.75 C-6.88609387 28.16112947 -2.94392349 14.62388009 0 0 Z " fill="#4B94CC" transform="translate(451,204)"/>
<path d="M0 0 C4.45176764 1.57171186 8.29007588 3.91418138 12.25 6.4375 C13.28423096 7.09032959 13.28423096 7.09032959 14.33935547 7.75634766 C24.29712872 14.05927506 34.20830259 20.44169799 44 27 C42 28 42 28 39.32397461 27.27832031 C38.19483643 26.88225586 37.06569824 26.48619141 35.90234375 26.078125 C34.97489853 25.75413475 34.97489853 25.75413475 34.02871704 25.42359924 C31.99486859 24.70840066 29.96601289 23.98018395 27.9375 23.25 C27.24880829 23.00478607 26.56011658 22.75957214 25.85055542 22.50692749 C12.26380234 17.65869885 -0.90855428 12.06443274 -14 6 C-14 5.67 -14 5.34 -14 5 C-10.535 4.505 -10.535 4.505 -7 4 C-6.67 4.66 -6.34 5.32 -6 6 C-2.26360784 4.75453595 -1.81243487 3.36595047 0 0 Z " fill="#4180BF" transform="translate(213,268)"/>
<path d="M0 0 C-0.33 0.99 -0.66 1.98 -1 3 C-1.66 3 -2.32 3 -3 3 C-3.33 3.66 -3.66 4.32 -4 5 C0.62 5 5.24 5 10 5 C10 5.33 10 5.66 10 6 C8.82566406 6.15855469 7.65132812 6.31710938 6.44140625 6.48046875 C-4.74705769 8.07330745 -15.23509485 10.60312868 -26 14 C-27.32941558 14.34863031 -28.66065441 14.69171073 -30 15 C-25.81144183 10.1392041 -21.17475497 7.85988974 -15.375 5.25 C-14.51648438 4.85167969 -13.65796875 4.45335937 -12.7734375 4.04296875 C-4.00225106 0 -4.00225106 0 0 0 Z " fill="#519FD2" transform="translate(86,192)"/>
<path d="M0 0 C2.29160319 -0.02692484 4.58329546 -0.04636124 6.875 -0.0625 C8.15117187 -0.07410156 9.42734375 -0.08570313 10.7421875 -0.09765625 C14 0 14 0 16 1 C16 1.99 16 2.98 16 4 C16.66 4.33 17.32 4.66 18 5 C18.99 6.485 18.99 6.485 20 8 C22.58380177 8.25030977 22.58380177 8.25030977 25 8 C25 9.65 25 11.3 25 13 C24.01 13.495 24.01 13.495 23 14 C17.41617352 11.98616094 12.55783245 9.04678474 7.5625 5.875 C6.83095703 5.41996094 6.09941406 4.96492187 5.34570312 4.49609375 C3.54370036 3.36206026 1.76893532 2.18495307 0 1 C0 0.67 0 0.34 0 0 Z " fill="#4E9CD4" transform="translate(174,216)"/>
<path d="M0 0 C0 0.66 0 1.32 0 2 C-1.65 2.66 -3.3 3.32 -5 4 C-5 4.33 -5 4.66 -5 5 C0.28 5.33 5.56 5.66 11 6 C11 6.66 11 7.32 11 8 C-4.84 8.495 -4.84 8.495 -21 9 C-17.39757479 6.29818109 -14.03195198 4.53446579 -9.9375 2.8125 C-9.00067383 2.40354492 -9.00067383 2.40354492 -8.04492188 1.98632812 C-5.190309 0.77075658 -3.13560401 0 0 0 Z " fill="#4E92C7" transform="translate(69,223)"/>
<path d="M0 0 C0.5775 0.350625 1.155 0.70125 1.75 1.0625 C4.35801776 2.14917407 5.39417629 1.93065133 8 1 C9.90758054 6.39644494 7.30741245 11.06758181 5 16 C2.84011457 19.47520028 0.50014532 22.76245227 -2 26 C-2.33 25.01 -2.66 24.02 -3 23 C-2.34 23 -1.68 23 -1 23 C-0.71125 22.05125 -0.4225 21.1025 -0.125 20.125 C1 17 1 17 3 15 C2.67 14.34 2.34 13.68 2 13 C2.16780163 10.30434798 2.61155645 7.67594446 3 5 C2.34 5 1.68 5 1 5 C0.67 5.66 0.34 6.32 0 7 C-0.66 7 -1.32 7 -2 7 C-2.99 7.495 -2.99 7.495 -4 8 C-2.87548273 5.0280615 -1.77706209 2.66559313 0 0 Z " fill="#488BC2" transform="translate(443,230)"/>
<path d="M0 0 C0.33 0.66 0.66 1.32 1 2 C-3.47053882 8.5258255 -7.71465734 14.15504836 -14 19 C-14.33 18.34 -14.66 17.68 -15 17 C-17.97 17.66 -20.94 18.32 -24 19 C-21.05801028 16.70949985 -18.01129254 14.78596697 -14.8125 12.875 C-9.08227226 9.27820382 -4.56051689 4.96589617 0 0 Z " fill="#4074AA" transform="translate(448,275)"/>
<path d="M0 0 C0.99 0.33 1.98 0.66 3 1 C2.67440623 4.00343637 2.11191572 4.90288795 -0.21484375 6.921875 C-1.11332031 7.52515625 -2.01179688 8.1284375 -2.9375 8.75 C-3.83339844 9.36359375 -4.72929687 9.9771875 -5.65234375 10.609375 C-8 12 -8 12 -10 12 C-10 11.34 -10 10.68 -10 10 C-9.34 10 -8.68 10 -8 10 C-8 9.01 -8 8.02 -8 7 C-10.97 6.505 -10.97 6.505 -14 6 C-11.66828982 3.66828982 -10.1450503 3.31061716 -7 2.4375 C-3.41233901 1.44538827 -3.41233901 1.44538827 0 0 Z " fill="#4378B4" transform="translate(431,291)"/>
<path d="M0 0 C1.32 0.33 2.64 0.66 4 1 C4 8.50976173 3.9264482 12.49682017 0 19 C-0.66 18.67 -1.32 18.34 -2 18 C-1.34 16.35 -0.68 14.7 0 13 C-1.32 13 -2.64 13 -4 13 C-3.835 12.401875 -3.67 11.80375 -3.5 11.1875 C-2.8885876 8.88655664 -2.8885876 8.88655664 -3 6 C-2.0625 3.9375 -2.0625 3.9375 -1 2 C-0.67 1.34 -0.34 0.68 0 0 Z " fill="#4D9CDD" transform="translate(442,234)"/>
<path d="M0 0 C0.66 0.66 1.32 1.32 2 2 C4.1374401 2.38594492 4.1374401 2.38594492 6.5 2.5 C10.77777778 2.77777778 10.77777778 2.77777778 13 5 C12.01 5.33 11.02 5.66 10 6 C9.67 6.66 9.34 7.32 9 8 C9.598125 7.773125 10.19625 7.54625 10.8125 7.3125 C11.8953125 7.1578125 11.8953125 7.1578125 13 7 C14.75 8.3125 14.75 8.3125 16 10 C16 10.66 16 11.32 16 12 C11.04242102 10.45173401 6.36189599 8.48219062 1.625 6.375 C0.88894531 6.05015625 0.15289062 5.7253125 -0.60546875 5.390625 C-2.40470969 4.59615497 -4.20250496 3.79841229 -6 3 C-6 2.67 -6 2.34 -6 2 C-4.02 1.34 -2.04 0.68 0 0 Z " fill="#448FCB" transform="translate(154,247)"/>
<path d="M0 0 C6.6 0 13.2 0 20 0 C20 0.66 20 1.32 20 2 C25.94 2 31.88 2 38 2 C38.495 2.99 38.495 2.99 39 4 C39.99 4.66 40.98 5.32 42 6 C36.84459136 5.46668186 31.74514818 4.80528152 26.625 4 C17.78859135 2.70166803 8.9162615 2.36121315 0 2 C0 1.34 0 0.68 0 0 Z " fill="#569DCC" transform="translate(96,195)"/>
<path d="M0 0 C0.66 0.66 1.32 1.32 2 2 C4.06874034 2.6425235 4.06874034 2.6425235 6 3 C6 3.66 6 4.32 6 5 C6.99 5 7.98 5 9 5 C8.34 3.68 7.68 2.36 7 1 C11.21654356 2.48635116 14.62478605 4.61249159 18.3125 7.125 C19.38113281 7.84945313 20.44976562 8.57390625 21.55078125 9.3203125 C22.76314453 10.15175781 22.76314453 10.15175781 24 11 C22 12 22 12 19.47802734 11.28735352 C18.4411377 10.90506592 17.40424805 10.52277832 16.3359375 10.12890625 C15.21445313 9.71962891 14.09296875 9.31035156 12.9375 8.88867188 C11.761875 8.45103516 10.58625 8.01339844 9.375 7.5625 C8.19164062 7.12873047 7.00828125 6.69496094 5.7890625 6.24804688 C2.85681919 5.17210276 -0.07264296 4.08915366 -3 3 C-2.01 2.01 -1.02 1.02 0 0 Z " fill="#3D73AC" transform="translate(233,284)"/>
<path d="M0 0 C3.69876091 1.37287342 6.9514476 3.06355453 10.3125 5.125 C11.19550781 5.66382813 12.07851563 6.20265625 12.98828125 6.7578125 C13.65214844 7.16773438 14.31601562 7.57765625 15 8 C14.67 8.66 14.34 9.32 14 10 C12.68 10 11.36 10 10 10 C8.65835921 10.2981424 7.32148827 10.62243192 6 11 C6 10.34 6 9.68 6 9 C5.34 8.67 4.68 8.34 4 8 C4 7.01 4 6.02 4 5 C3.01 5 2.02 5 1 5 C0.67 3.35 0.34 1.7 0 0 Z " fill="#4285C2" transform="translate(285,261)"/>
<path d="M0 0 C-0.99 1.485 -0.99 1.485 -2 3 C-4.625 3.1875 -4.625 3.1875 -7 3 C-7.33 4.65 -7.66 6.3 -8 8 C-11.47823115 9.15941038 -13.45895578 8.70820884 -17 8 C-17.33 8.99 -17.66 9.98 -18 11 C-18.33 9.68 -18.66 8.36 -19 7 C-16.40163864 5.63354299 -13.79734444 4.28169331 -11.1875 2.9375 C-10.44951172 2.54755859 -9.71152344 2.15761719 -8.95117188 1.75585938 C-8.23896484 1.39169922 -7.52675781 1.02753906 -6.79296875 0.65234375 C-6.1383667 0.31195068 -5.48376465 -0.02844238 -4.80932617 -0.37915039 C-3 -1 -3 -1 0 0 Z " fill="#488BC4" transform="translate(429,250)"/>
<path d="M0 0 C0.33 0.66 0.66 1.32 1 2 C1.99 2 2.98 2 4 2 C4 2.66 4 3.32 4 4 C3.01 4 2.02 4 1 4 C1.99 4.33 2.98 4.66 4 5 C5.02019573 5.9793879 6.02149805 6.97895449 7 8 C7.66 8.33 8.32 8.66 9 9 C9.33 8.34 9.66 7.68 10 7 C10.99 7.66 11.98 8.32 13 9 C10.953125 10.234375 10.953125 10.234375 8 11 C5.32684835 9.87133597 3.17609497 8.7700844 0.75 7.25 C0.11320312 6.87617188 -0.52359375 6.50234375 -1.1796875 6.1171875 C-5.83928571 3.32142857 -5.83928571 3.32142857 -7 1 C-3.535 0.505 -3.535 0.505 0 0 Z " fill="#3A76B4" transform="translate(270,272)"/>
<path d="M0 0 C1.65 0.33 3.3 0.66 5 1 C5.144375 1.639375 5.28875 2.27875 5.4375 2.9375 C5.81007181 4.97545146 5.81007181 4.97545146 7 6 C7.33 6.99 7.66 7.98 8 9 C7.34 9.66 6.68 10.32 6 11 C2.125 8.25 2.125 8.25 1 6 C0.01 5.34 -0.98 4.68 -2 4 C-2 3.34 -2 2.68 -2 2 C-1.34 2 -0.68 2 0 2 C0 1.34 0 0.68 0 0 Z " fill="#478BD1" transform="translate(214,271)"/>
<path d="M0 0 C0.33 0.99 0.66 1.98 1 3 C1.598125 2.79375 2.19625 2.5875 2.8125 2.375 C5 2 5 2 8 4 C8.66 4.309375 9.32 4.61875 10 4.9375 C12.10535376 6.05596918 13.39752234 7.25184255 15 9 C15.66 9.66 16.32 10.32 17 11 C12.44684052 10.38188466 8.71540233 8.53234107 4.6875 6.4375 C3.71973633 5.9434668 3.71973633 5.9434668 2.73242188 5.43945312 C1.15214772 4.63175745 -0.42432105 3.81662387 -2 3 C-1.34 2.67 -0.68 2.34 0 2 C0 1.34 0 0.68 0 0 Z " fill="#3E7FB8" transform="translate(182,262)"/>
<path d="M0 0 C1.65 0.33 3.3 0.66 5 1 C1.15704127 4.5087884 -4.74687196 7 -10 7 C-10.33 5.35 -10.66 3.7 -11 2 C-7.33694766 1.25073929 -4.57644848 0.7619986 -1 2 C-0.67 1.34 -0.34 0.68 0 0 Z " fill="#3A76B7" transform="translate(412,304)"/>
<path d="M0 0 C3.91211733 1.15585285 6.8745041 2.35534962 10 5 C3.32601537 9.03951701 3.32601537 9.03951701 0.9375 8.75 C0.298125 8.5025 -0.34125 8.255 -1 8 C-1.33 7.01 -1.66 6.02 -2 5 C1.75 3.875 1.75 3.875 4 5 C4 4.01 4 3.02 4 2 C2.68 1.67 1.36 1.34 0 1 C0 0.67 0 0.34 0 0 Z " fill="#4080BF" transform="translate(316,279)"/>
<path d="M0 0 C0.33 0 0.66 0 1 0 C1 2.64 1 5.28 1 8 C-3.75 9.125 -3.75 9.125 -6 8 C-6.33 8.66 -6.66 9.32 -7 10 C-6.25 4.25 -6.25 4.25 -4 2 C-3.01 2 -2.02 2 -1 2 C-0.67 1.34 -0.34 0.68 0 0 Z " fill="#4EA1DD" transform="translate(451,224)"/>
<path d="M0 0 C2 1 4 2 6 3 C5.67 3.99 5.34 4.98 5 6 C0.27934033 4.45730076 -4.41664092 2.92205381 -9 1 C-5.64406166 -1.11299821 -3.77811119 -1.09366377 0 0 Z " fill="#3A70AF" transform="translate(316,297)"/>
<path d="M0 0 C1.98 0 3.96 0 6 0 C5.34 1.65 4.68 3.3 4 5 C5.32 5.33 6.64 5.66 8 6 C6 7 6 7 2.9609375 6.00390625 C1.77757812 5.52824219 0.59421875 5.05257813 -0.625 4.5625 C-1.81351562 4.08941406 -3.00203125 3.61632812 -4.2265625 3.12890625 C-5.14179688 2.75636719 -6.05703125 2.38382812 -7 2 C-3.98968256 1.06576355 -3.13349732 0.95550089 0 2 C0 1.34 0 0.68 0 0 Z " fill="#4382BE" transform="translate(347,266)"/>
<path d="M0 0 C3.93673644 1.31224548 6.22719294 2.91910327 9 6 C5.125 5.125 5.125 5.125 4 4 C3.67 4.66 3.34 5.32 3 6 C3.66 6 4.32 6 5 6 C5.33 7.32 5.66 8.64 6 10 C3.69 9.67 1.38 9.34 -1 9 C-1 5 -1 5 1 3 C0.67 2.01 0.34 1.02 0 0 Z " fill="#4688C0" transform="translate(273,253)"/>
<path d="M0 0 C0.33 0.99 0.66 1.98 1 3 C-5.48129797 5.50413785 -11.18491136 4.82810601 -18 4 C-18 3.67 -18 3.34 -18 3 C-15.56318413 2.49645133 -13.12564561 1.99703244 -10.6875 1.5 C-9.99720703 1.35691406 -9.30691406 1.21382813 -8.59570312 1.06640625 C-5.67475227 0.47374956 -2.98891878 0 0 0 Z " fill="#3F75AE" transform="translate(416,297)"/>
<path d="M0 0 C0.66 0 1.32 0 2 0 C2 1.32 2 2.64 2 4 C3.91666921 6.25065102 3.91666921 6.25065102 6 8 C4.71086513 8.67154933 3.41859796 9.33708859 2.125 10 C1.40570313 10.37125 0.68640625 10.7425 -0.0546875 11.125 C-2 12 -2 12 -4 12 C-4 11.34 -4 10.68 -4 10 C-2.68 9.67 -1.36 9.34 0 9 C-0.66 6.69 -1.32 4.38 -2 2 C-1.34 1.34 -0.68 0.68 0 0 Z " fill="#4485BE" transform="translate(420,261)"/>
<path d="M0 0 C0.94875 0.350625 1.8975 0.70125 2.875 1.0625 C-0.25624559 2.70232293 -3.4392683 4.01405299 -6.75 5.25 C-7.71164063 5.61480469 -8.67328125 5.97960937 -9.6640625 6.35546875 C-12.125 7.0625 -12.125 7.0625 -14.125 6.0625 C-12.66761898 5.08191648 -11.20906325 4.10307868 -9.75 3.125 C-8.93789063 2.57972656 -8.12578125 2.03445312 -7.2890625 1.47265625 C-3.44366464 -1.03309939 -3.44366464 -1.03309939 0 0 Z " fill="#5199C1" transform="translate(70.125,199.9375)"/>
<path d="M0 0 C1.8871875 0.061875 1.8871875 0.061875 3.8125 0.125 C3.5625 2 3.5625 2 2.8125 4.125 C0.75 5.375 0.75 5.375 -1.1875 6.125 C-1.1875 5.465 -1.1875 4.805 -1.1875 4.125 C-2.8375 4.125 -4.4875 4.125 -6.1875 4.125 C-6.5175 3.465 -6.8475 2.805 -7.1875 2.125 C-4.09861478 0.06574319 -3.47814073 -0.1140374 0 0 Z " fill="#4B91D5" transform="translate(341.1875,257.875)"/>
<path d="M0 0 C0.5775 0.350625 1.155 0.70125 1.75 1.0625 C4.35801776 2.14917407 5.39417629 1.93065133 8 1 C7.67 2.65 7.34 4.3 7 6 C6.01 6.33 5.02 6.66 4 7 C4 6.34 4 5.68 4 5 C3.01 5 2.02 5 1 5 C0.67 5.66 0.34 6.32 0 7 C-0.66 7 -1.32 7 -2 7 C-2.99 7.495 -2.99 7.495 -4 8 C-2.87548273 5.0280615 -1.77706209 2.66559313 0 0 Z " fill="#4793CC" transform="translate(443,230)"/>
<path d="M0 0 C3.77545388 1.09068668 6.47043472 1.9083091 9 5 C5.64961743 5.83759564 3.2704774 6.24052591 0 5 C-0.66 4.34 -1.32 3.68 -2 3 C-1.34 2.01 -0.68 1.02 0 0 Z " fill="#3F81BD" transform="translate(307,274)"/>
<path d="M0 0 C1.670625 0.061875 1.670625 0.061875 3.375 0.125 C3.375 0.455 3.375 0.785 3.375 1.125 C1.725 1.455 0.075 1.785 -1.625 2.125 C-0.531875 2.41375 0.56125 2.7025 1.6875 3 C5.375 4.125 5.375 4.125 8.375 6.125 C8.375 6.785 8.375 7.445 8.375 8.125 C3.4026578 6.63329734 -1.04345739 4.52042583 -5.625 2.125 C-3.625 0.125 -3.625 0.125 0 0 Z " fill="#3A76B5" transform="translate(298.625,288.875)"/>
<path d="M0 0 C1.77226453 0.28284018 3.542788 0.57660498 5.3125 0.875 C6.29863281 1.03742188 7.28476562 1.19984375 8.30078125 1.3671875 C11 2 11 2 14 4 C12.02 4 10.04 4 8 4 C9.32 5.32 10.64 6.64 12 8 C7.44328408 6.48109469 3.68276708 4.04597738 0 1 C0 0.67 0 0.34 0 0 Z " fill="#447CAE" transform="translate(309,249)"/>
<path d="M0 0 C3.16909745 0.70587785 6.06074406 1.76851038 9.0625 3 C11.69922482 4.07847992 14.29610724 5.09870241 17 6 C17 6.66 17 7.32 17 8 C10.89262558 6.23536928 4.92566493 4.30442525 -1 2 C-0.67 1.34 -0.34 0.68 0 0 Z " fill="#5199C9" transform="translate(143,201)"/>
<path d="M0 0 C0.53625 0.185625 1.0725 0.37125 1.625 0.5625 C4.10469608 1.16633461 4.10469608 1.16633461 7 0.4375 C10 0 10 0 14 2 C9.71 2.99 5.42 3.98 1 5 C0.67 3.35 0.34 1.7 0 0 Z " fill="#4581B8" transform="translate(400,273)"/>
<path d="M0 0 C2 2 2 2 2.1953125 4.6015625 C2.17210937 5.59929687 2.14890625 6.59703125 2.125 7.625 C2.10695313 8.62789062 2.08890625 9.63078125 2.0703125 10.6640625 C2.03550781 11.82035156 2.03550781 11.82035156 2 13 C1.67 12.34 1.34 11.68 1 11 C-0.32 11.33 -1.64 11.66 -3 12 C-2.690625 11.13375 -2.38125 10.2675 -2.0625 9.375 C-1.07508101 6.23849262 -0.46418941 3.24932587 0 0 Z " fill="#53A6DE" transform="translate(451,210)"/>
<path d="M0 0 C4.67105792 1.55701931 8.08705685 4.08447373 12 7 C11.34 7.66 10.68 8.32 10 9 C7.525 8.01 7.525 8.01 5 7 C5 6.34 5 5.68 5 5 C4.34 4.67 3.68 4.34 3 4 C2.01 3.34 1.02 2.68 0 2 C0 1.34 0 0.68 0 0 Z " fill="#447BB1" transform="translate(223,274)"/>
<path d="M0 0 C5.68502535 1.64566523 10.76681636 4.29032784 16 7 C12.62472362 8.12509213 12.08116594 7.90597042 8.9375 6.625 C8.24527344 6.34914062 7.55304688 6.07328125 6.83984375 5.7890625 C5.54210114 5.23249348 4.26298217 4.63149109 3 4 C3 3.34 3 2.68 3 2 C2.01 1.67 1.02 1.34 0 1 C0 0.67 0 0.34 0 0 Z " fill="#4B8CBD" transform="translate(153,233)"/>
<path d="M0 0 C1.45833333 0.72916667 2.91666667 1.45833333 4.375 2.1875 C4.375 2.8475 4.375 3.5075 4.375 4.1875 C2.395 4.5175 0.415 4.8475 -1.625 5.1875 C-2.285 4.1975 -2.945 3.2075 -3.625 2.1875 C-4.615 1.8575 -5.605 1.5275 -6.625 1.1875 C-3.97805312 -0.57713125 -3.11657752 -0.96465495 0 0 Z " fill="#519ED4" transform="translate(202.625,209.8125)"/>
<path d="M0 0 C5.5 -0.36666667 5.5 -0.36666667 7.875 1.375 C9 3 9 3 9 5 C5.37673261 6.2077558 4.35853631 5.54311128 1 4 C1.33 3.34 1.66 2.68 2 2 C1.34 1.34 0.68 0.68 0 0 Z " fill="#4995D8" transform="translate(324,255)"/>
<path d="M0 0 C2.02045442 0.60183749 4.02111039 1.27306096 6 2 C6.33 2.66 6.66 3.32 7 4 C5.68 4.99 4.36 5.98 3 7 C3 6.34 3 5.68 3 5 C2.01 5 1.02 5 0 5 C-0.5625 3.0625 -0.5625 3.0625 -1 1 C-0.67 0.67 -0.34 0.34 0 0 Z " fill="#4CA4E1" transform="translate(211,217)"/>
<path d="M0 0 C0.86625 0.4640625 0.86625 0.4640625 1.75 0.9375 C3.84294184 1.92583364 5.74535275 2.5168613 8 3 C8.33 4.32 8.66 5.64 9 7 C8.01 6.67 7.02 6.34 6 6 C5.01 6.33 4.02 6.66 3 7 C1.5 5.75 1.5 5.75 0 4 C0 2.68 0 1.36 0 0 Z " fill="#4788D0" transform="translate(227,279)"/>
<path d="M0 0 C3.63 1.98 7.26 3.96 11 6 C7.37673261 7.2077558 6.35853631 6.54311128 3 5 C3 5.66 3 6.32 3 7 C2.01 6.67 1.02 6.34 0 6 C0.66 4.68 1.32 3.36 2 2 C1.34 2 0.68 2 0 2 C0 1.34 0 0.68 0 0 Z " fill="#4484BB" transform="translate(193,255)"/>
<path d="M0 0 C0.33 1.98 0.66 3.96 1 6 C0.21625 5.95875 -0.5675 5.9175 -1.375 5.875 C-4.16116119 5.71271266 -4.16116119 5.71271266 -6 8 C-5.62403791 5.21788056 -5.32681541 3.4120716 -3.5625 1.1875 C-2 0 -2 0 0 0 Z " fill="#4691CC" transform="translate(450,222)"/>
<path d="M0 0 C5.21979128 -0.1799928 9.07262981 0.02905192 14 2 C13.34 2.66 12.68 3.32 12 4 C10.66400079 3.67751743 9.33106622 3.34227417 8 3 C5.31850007 3.38567131 5.31850007 3.38567131 3 4 C3.66 3.34 4.32 2.68 5 2 C3.35 1.67 1.7 1.34 0 1 C0 0.67 0 0.34 0 0 Z " fill="#4483CB" transform="translate(360,299)"/>
<path d="M0 0 C0.33 0.66 0.66 1.32 1 2 C1.99 2 2.98 2 4 2 C4 2.66 4 3.32 4 4 C-3.50769231 4.36923077 -3.50769231 4.36923077 -6 2.5 C-6.33 2.005 -6.66 1.51 -7 1 C-3.535 0.505 -3.535 0.505 0 0 Z " fill="#4483C0" transform="translate(270,272)"/>
<path d="M0 0 C3.3 0 6.6 0 10 0 C10.66666667 1.33333333 11.33333333 2.66666667 12 4 C9.5332355 4.88336837 8.36140628 5.1312406 5.859375 4.22265625 C5.16328125 3.83980469 4.4671875 3.45695313 3.75 3.0625 C3.04359375 2.68222656 2.3371875 2.30195313 1.609375 1.91015625 C1.07828125 1.60980469 0.5471875 1.30945313 0 1 C0 0.67 0 0.34 0 0 Z " fill="#4D9BCF" transform="translate(164,211)"/>
<path d="M0 0 C0 0.66 0 1.32 0 2 C-3.82320557 3.42258812 -6.91281305 4.24042276 -11 4 C-8.94006922 -0.11986157 -4.11800376 -1.37266792 0 0 Z " fill="#4484CC" transform="translate(434,292)"/>
<path d="M0 0 C1.32 0 2.64 0 4 0 C3.875 1.875 3.875 1.875 3 4 C-0.0625 5.25 -0.0625 5.25 -3 6 C-1.125 1.125 -1.125 1.125 0 0 Z " fill="#4080B9" transform="translate(437,285)"/>
<path d="M0 0 C0 0.66 0 1.32 0 2 C-0.99 2.495 -0.99 2.495 -2 3 C-1.67 3.66 -1.34 4.32 -1 5 C-3.97 5 -6.94 5 -10 5 C-3.63636364 0 -3.63636364 0 0 0 Z " fill="#4A88B9" transform="translate(58,227)"/>
<path d="M0 0 C1.1446875 0.2475 1.1446875 0.2475 2.3125 0.5 C5.03596236 1.09145396 5.03596236 1.09145396 8 1 C8.12375 1.639375 8.2475 2.27875 8.375 2.9375 C8.58125 3.618125 8.7875 4.29875 9 5 C9.66 5.33 10.32 5.66 11 6 C6.80639551 5.32902328 3.59665648 3.1441606 0 1 C0 0.67 0 0.34 0 0 Z " fill="#3F77AF" transform="translate(280,283)"/>
<path d="M0 0 C2.64 0 5.28 0 8 0 C8 0.99 8 1.98 8 3 C8.66 3.66 9.32 4.32 10 5 C6.05140217 4.4359146 3.29120954 3.2568294 0 1 C0 0.67 0 0.34 0 0 Z " fill="#3F7DB2" transform="translate(170,259)"/>
<path d="M0 0 C7.4659249 -0.36717663 7.4659249 -0.36717663 10 1.375 C11 3 11 3 11 5 C7.27566618 3.7874262 3.62197194 2.49140021 0 1 C0 0.67 0 0.34 0 0 Z " fill="#4182BA" transform="translate(159,254)"/>
<path d="M0 0 C0.99 0.33 1.98 0.66 3 1 C1 4 1 4 -1.3828125 4.73046875 C-2.74019531 4.95669922 -2.74019531 4.95669922 -4.125 5.1875 C-5.49011719 5.42533203 -5.49011719 5.42533203 -6.8828125 5.66796875 C-7.58148438 5.77753906 -8.28015625 5.88710937 -9 6 C-6.08409255 3.79604447 -3.26125764 1.67243982 0 0 Z " fill="#4985BA" transform="translate(426,249)"/>
<path d="M0 0 C1.485 0.99 1.485 0.99 3 2 C3.99 2.33 4.98 2.66 6 3 C5.34 4.32 4.68 5.64 4 7 C3.01 6.67 2.02 6.34 1 6 C0.67 4.02 0.34 2.04 0 0 Z " fill="#4EA2DE" transform="translate(224,224)"/>
<path d="M0 0 C3.3 0.99 6.6 1.98 10 3 C10 3.33 10 3.66 10 4 C7.69 4.66 5.38 5.32 3 6 C3 5.01 3 4.02 3 3 C2.01 2.67 1.02 2.34 0 2 C0 1.34 0 0.68 0 0 Z " fill="#4279B1" transform="translate(333,287)"/>
<path d="M0 0 C0.66 0.33 1.32 0.66 2 1 C2.33 1.99 2.66 2.98 3 4 C2.67 4.66 2.34 5.32 2 6 C-0.475 5.01 -0.475 5.01 -3 4 C-3 3.01 -3 2.02 -3 1 C-2.01 1.33 -1.02 1.66 0 2 C0 1.34 0 0.68 0 0 Z " fill="#4688BE" transform="translate(238,253)"/>
<path d="M0 0 C8.57142857 -0.28571429 8.57142857 -0.28571429 12 2 C7.48281619 3.36884358 4.41225737 2.47075246 0 1 C0 0.67 0 0.34 0 0 Z " fill="#3F71AC" transform="translate(331,306)"/>
<path d="M0 0 C-0.33 0.66 -0.66 1.32 -1 2 C-3.875 2.125 -3.875 2.125 -7 2 C-7.66 1.34 -8.32 0.68 -9 0 C-5.67465243 -1.10844919 -3.37817425 -0.84454356 0 0 Z " fill="#3B78BC" transform="translate(316,297)"/>
<path d="M0 0 C1.98 0 3.96 0 6 0 C5.01 0.495 5.01 0.495 4 1 C4.33 2.32 4.66 3.64 5 5 C4.01 5 3.02 5 2 5 C1.34 3.35 0.68 1.7 0 0 Z " fill="#4489C1" transform="translate(350,259)"/>
<path d="M0 0 C2.31 0.66 4.62 1.32 7 2 C7 3.32 7 4.64 7 6 C6.34 6 5.68 6 5 6 C3.2856382 4.04072937 1.61594832 2.04119788 0 0 Z " fill="#4A94CC" transform="translate(316,252)"/>
<path d="M0 0 C2.97 1.65 5.94 3.3 9 5 C7 6 7 6 3.9375 5.3125 C2.968125 4.879375 1.99875 4.44625 1 4 C0.67 2.68 0.34 1.36 0 0 Z " fill="#4D88B8" transform="translate(170,241)"/>
<path d="M0 0 C1.67542976 0.28604898 3.34385343 0.61781233 5 1 C2.06171403 3.50298434 -0.17902761 4.46930939 -4 5 C-4 4.34 -4 3.68 -4 3 C-3.01 2.34 -2.02 1.68 -1 1 C-0.67 0.67 -0.34 0.34 0 0 Z " fill="#3F70AC" transform="translate(412,304)"/>
</svg>
