<?xml version="1.0" encoding="UTF-8"?>
<svg version="1.1" xmlns="http://www.w3.org/2000/svg" width="500" height="500">
<path d="M0 0 C0.67546875 0.15033691 1.3509375 0.30067383 2.046875 0.45556641 C23.29276725 5.41191191 43.292369 16.05580975 62 27 C62.82306641 27.48082031 63.64613281 27.96164063 64.49414062 28.45703125 C75.12079053 34.69638108 85.57304148 41.20345866 95.97265625 47.8125 C101.52674969 51.34059279 107.10601465 54.82795363 112.6875 58.3125 C113.6885376 58.93753418 114.6895752 59.56256836 115.72094727 60.20654297 C117.77093964 61.48641855 119.82098901 62.76620284 121.87109375 64.04589844 C126.1054255 66.69037341 130.3372851 69.33879147 134.5690918 71.98730469 C137.62390598 73.89772946 140.6809203 75.80459192 143.73828125 77.7109375 C146.66214685 79.53470953 149.58079592 81.36458307 152.48046875 83.2265625 C188.37473391 105.99350531 233.13394677 128.04299237 276.7890625 119.0390625 C295.19980972 114.77739391 308.97614888 104.19984911 322 91 C318.06544619 106.34475985 303.99307177 118.06940481 291 126 C266.79379375 139.10883785 234.50386659 141.15765431 208 134 C207.02853027 133.74718262 206.05706055 133.49436523 205.05615234 133.23388672 C169.39619046 123.80531382 138.07931721 106.387793 107 87 C106.02675781 86.39397949 105.05351562 85.78795898 104.05078125 85.16357422 C93.15851457 78.35974826 82.42705194 71.3230605 71.75 64.1875 C71.18455475 63.80963348 70.6191095 63.43176697 70.03652954 63.04244995 C68.89212779 62.27759444 67.74775427 61.51269669 66.60340881 60.74775696 C63.73607232 58.83113904 60.86836921 56.91507209 58 55 C57.43825073 54.62494324 56.87650146 54.24988647 56.29772949 53.86346436 C15.39865978 26.57923527 -24.29089752 4.54682738 -75 13 C-84.62851142 14.92498064 -94.31598643 17.17864095 -103.22265625 21.3984375 C-105 22 -105 22 -108 21 C-90.66518463 9.4605519 -73.66839097 1.71228381 -53 -2 C-51.97390625 -2.185625 -50.9478125 -2.37125 -49.890625 -2.5625 C-33.38217491 -4.4188719 -16.19937378 -3.68133747 0 0 Z " fill="#4894D4" transform="translate(145,183)"/>
<path d="M0 0 C0.7537793 0.32000977 1.50755859 0.64001953 2.28417969 0.96972656 C18.75289188 8.1063923 33.83351083 17.49213255 49 27 C49.90556641 27.56541504 50.81113281 28.13083008 51.74414062 28.71337891 C56.39129831 31.61739685 61.02188166 34.54641654 65.64111328 37.49462891 C68.18466333 39.11784662 70.73079925 40.73695315 73.27734375 42.35546875 C76.96338636 44.69872469 80.64824312 47.04382648 84.33203125 49.390625 C88.24441074 51.88286465 92.1586511 54.37214732 96.07421875 56.859375 C97.06639404 57.4898877 98.05856934 58.12040039 99.08081055 58.77001953 C100.97649113 59.97461776 102.87247011 61.17874657 104.76879883 62.38232422 C109.21276093 65.20731034 113.634002 68.05582371 118 71 C117.67 71.66 117.34 72.32 117 73 C85.70266085 62.6589344 54.74100052 50.73918687 25.6875 35.0625 C-18.30498959 11.46734179 -62.00612698 -0.12848129 -112 3 C-112 2.34 -112 1.68 -112 1 C-76.17084531 -18.81141495 -36.77028112 -15.61938325 0 0 Z " fill="#4896D6" transform="translate(142,229)"/>
<path d="M0 0 C0.99 0.495 0.99 0.495 2 1 C5.57141206 13.98799232 4.65814255 31.78475767 -1 44 C-1.63615234 45.41732422 -1.63615234 45.41732422 -2.28515625 46.86328125 C-10.00468712 62.40985735 -24.03509023 74.22490542 -40.375 79.75 C-71.28939324 89.62596614 -102.91636728 81.57890944 -131 67.125 C-151.98366781 56.03266438 -151.98366781 56.03266438 -155 50 C-148.41487761 51.21334225 -141.96209906 52.75515961 -135.48876953 54.46264648 C-102.16349967 63.17758935 -62.78131407 70.97687819 -31.05859375 53.3671875 C-15.48716158 43.91840009 -6.91147881 29.61126633 -2.50390625 12.02001953 C-1.56901958 8.03226432 -0.75253339 4.02574771 0 0 Z " fill="#4793D3" transform="translate(467,198)"/>
</svg>
